<svg id="visual" viewBox="0 0 960 540" width="960" height="540" xmlns="http://www.w3.org/2000/svg" xmlns:xlink="http://www.w3.org/1999/xlink" version="1.1"><rect x="0" y="0" width="960" height="540" fill="#000000"></rect><path d="M0 296L20 285.7C40 275.3 80 254.7 120 251.8C160 249 200 264 240 276.8C280 289.7 320 300.3 360 296.7C400 293 440 275 480 262.2C520 249.3 560 241.7 600 251.8C640 262 680 290 720 304.8C760 319.7 800 321.3 840 310.7C880 300 920 277 940 265.5L960 254L960 0L940 0C920 0 880 0 840 0C800 0 760 0 720 0C680 0 640 0 600 0C560 0 520 0 480 0C440 0 400 0 360 0C320 0 280 0 240 0C200 0 160 0 120 0C80 0 40 0 20 0L0 0Z" fill="#715df2"></path><path d="M0 198L20 195C40 192 80 186 120 184.7C160 183.3 200 186.7 240 198.5C280 210.3 320 230.7 360 233.2C400 235.7 440 220.3 480 215.5C520 210.7 560 216.3 600 226C640 235.7 680 249.3 720 253.2C760 257 800 251 840 250.7C880 250.3 920 255.7 940 258.3L960 261L960 0L940 0C920 0 880 0 840 0C800 0 760 0 720 0C680 0 640 0 600 0C560 0 520 0 480 0C440 0 400 0 360 0C320 0 280 0 240 0C200 0 160 0 120 0C80 0 40 0 20 0L0 0Z" fill="#6345b4"></path><path d="M0 152L20 153C40 154 80 156 120 160.3C160 164.7 200 171.3 240 179.2C280 187 320 196 360 193.8C400 191.7 440 178.3 480 176.3C520 174.3 560 183.7 600 183.8C640 184 680 175 720 173.7C760 172.3 800 178.7 840 180.7C880 182.7 920 180.3 940 179.2L960 178L960 0L940 0C920 0 880 0 840 0C800 0 760 0 720 0C680 0 640 0 600 0C560 0 520 0 480 0C440 0 400 0 360 0C320 0 280 0 240 0C200 0 160 0 120 0C80 0 40 0 20 0L0 0Z" fill="#4e317b"></path><path d="M0 135L20 132.3C40 129.7 80 124.3 120 123.2C160 122 200 125 240 127.2C280 129.3 320 130.7 360 133.7C400 136.7 440 141.3 480 142.2C520 143 560 140 600 136.3C640 132.7 680 128.3 720 120C760 111.7 800 99.3 840 101.3C880 103.3 920 119.7 940 127.8L960 136L960 0L940 0C920 0 880 0 840 0C800 0 760 0 720 0C680 0 640 0 600 0C560 0 520 0 480 0C440 0 400 0 360 0C320 0 280 0 240 0C200 0 160 0 120 0C80 0 40 0 20 0L0 0Z" fill="#342048"></path><path d="M0 45L20 47.2C40 49.3 80 53.7 120 51.8C160 50 200 42 240 44.3C280 46.7 320 59.3 360 60.3C400 61.3 440 50.7 480 53C520 55.3 560 70.7 600 74.2C640 77.7 680 69.3 720 68.8C760 68.3 800 75.7 840 72.7C880 69.7 920 56.3 940 49.7L960 43L960 0L940 0C920 0 880 0 840 0C800 0 760 0 720 0C680 0 640 0 600 0C560 0 520 0 480 0C440 0 400 0 360 0C320 0 280 0 240 0C200 0 160 0 120 0C80 0 40 0 20 0L0 0Z" fill="#180f1c"></path></svg>