<svg id="visual" viewBox="0 0 960 540" width="960" height="540" xmlns="http://www.w3.org/2000/svg" xmlns:xlink="http://www.w3.org/1999/xlink" version="1.1"><rect x="0" y="0" width="960" height="540" fill="#000000"></rect><path d="M0 160L20 158.3C40 156.7 80 153.3 120 157.3C160 161.3 200 172.7 240 183C280 193.3 320 202.7 360 201.7C400 200.7 440 189.3 480 190.8C520 192.3 560 206.7 600 211.2C640 215.7 680 210.3 720 198.2C760 186 800 167 840 164.3C880 161.7 920 175.3 940 182.2L960 189L960 541L940 541C920 541 880 541 840 541C800 541 760 541 720 541C680 541 640 541 600 541C560 541 520 541 480 541C440 541 400 541 360 541C320 541 280 541 240 541C200 541 160 541 120 541C80 541 40 541 20 541L0 541Z" fill="#715df2"></path><path d="M0 258L20 260.8C40 263.7 80 269.3 120 275.7C160 282 200 289 240 288.7C280 288.3 320 280.7 360 269C400 257.3 440 241.7 480 233.3C520 225 560 224 600 227C640 230 680 237 720 242.8C760 248.7 800 253.3 840 256.2C880 259 920 260 940 260.5L960 261L960 541L940 541C920 541 880 541 840 541C800 541 760 541 720 541C680 541 640 541 600 541C560 541 520 541 480 541C440 541 400 541 360 541C320 541 280 541 240 541C200 541 160 541 120 541C80 541 40 541 20 541L0 541Z" fill="#6345b4"></path><path d="M0 306L20 306.5C40 307 80 308 120 305C160 302 200 295 240 298.2C280 301.3 320 314.7 360 315.3C400 316 440 304 480 296.2C520 288.3 560 284.7 600 290.7C640 296.7 680 312.3 720 322.5C760 332.7 800 337.3 840 334.3C880 331.3 920 320.7 940 315.3L960 310L960 541L940 541C920 541 880 541 840 541C800 541 760 541 720 541C680 541 640 541 600 541C560 541 520 541 480 541C440 541 400 541 360 541C320 541 280 541 240 541C200 541 160 541 120 541C80 541 40 541 20 541L0 541Z" fill="#4e317b"></path><path d="M0 361L20 366.5C40 372 80 383 120 384.7C160 386.3 200 378.7 240 382.5C280 386.3 320 401.7 360 400.2C400 398.7 440 380.3 480 375C520 369.7 560 377.3 600 382.5C640 387.7 680 390.3 720 394.8C760 399.3 800 405.7 840 408.8C880 412 920 412 940 412L960 412L960 541L940 541C920 541 880 541 840 541C800 541 760 541 720 541C680 541 640 541 600 541C560 541 520 541 480 541C440 541 400 541 360 541C320 541 280 541 240 541C200 541 160 541 120 541C80 541 40 541 20 541L0 541Z" fill="#342048"></path><path d="M0 472L20 466.5C40 461 80 450 120 446C160 442 200 445 240 453.3C280 461.7 320 475.3 360 480.2C400 485 440 481 480 476.7C520 472.3 560 467.7 600 462.3C640 457 680 451 720 453.8C760 456.7 800 468.3 840 468.3C880 468.3 920 456.7 940 450.8L960 445L960 541L940 541C920 541 880 541 840 541C800 541 760 541 720 541C680 541 640 541 600 541C560 541 520 541 480 541C440 541 400 541 360 541C320 541 280 541 240 541C200 541 160 541 120 541C80 541 40 541 20 541L0 541Z" fill="#180f1c"></path></svg>